<svg fill="none" height="218" viewBox="0 0 236 218" width="236" xmlns="http://www.w3.org/2000/svg"><path d="m196.278 64.6363h-140.793v.6948h140.793z" fill="#ccc"/><path d="m126.118.348022h-.695v64.634878h.695z" fill="#ccc"/><path d="m185.06 32.3181h-118.5789v.6949h118.5789z" fill="#ccc"/><path d="m148.194 114.771c.001 3.535-1.282 6.95-3.61 9.61-.209.24-.428.469-.65.695h-20.672c-.222-.226-.441-.455-.65-.695-1.365-1.556-2.383-3.386-2.984-5.368 0 0 .003 0 0-.003-.416-1.374-.627-2.803-.626-4.239-.001-.591.035-1.181.108-1.768.432-3.535 2.142-6.79 4.807-9.152s6.101-3.668 9.662-3.673c3.562-.004 7.001 1.293 9.673 3.648 2.671 2.355 4.389 5.605 4.831 9.139.074.599.111 1.202.111 1.806z" fill="#2f2e41"/><path d="m115.201 125.076h-1.785l1.386-.695.042-.02.01.02z" fill="#2f2e41"/><path d="m127.372 125.076h-1.786l.348-.695.01-.02.042.02z" fill="#2f2e41"/><path d="m132.576 116.19c2.755 0 4.988-2.233 4.988-4.988 0-2.756-2.233-4.989-4.988-4.989s-4.989 2.233-4.989 4.989c0 2.755 2.234 4.988 4.989 4.988z" fill="#fff"/><path d="m132.052 113.372c.647-.647.643-1.699-.008-2.35s-1.704-.655-2.35-.008c-.647.646-.643 1.698.008 2.35.651.651 1.703.655 2.35.008z" fill="#3f3d56"/><path d="m145.112 98.8926c.22-5.4039-4.438-9.9809-10.402-10.2232-5.965-.2423-10.978 3.942-11.197 9.3458-.22 5.4038 3.926 6.6318 9.891 6.8738 5.964.242 11.489-.593 11.708-5.9964z" fill="#fca311"/><path d="m137.607 120.524c.078.43.071.871-.022 1.298-.092.427-.267.831-.516 1.19-.248.359-.565.666-.932.903s-.777.399-1.207.477c-.429.078-.87.071-1.297-.021s-.832-.268-1.191-.516c-.359-.249-.666-.566-.902-.933-.237-.367-.399-.777-.477-1.207l-.002-.006c-.327-1.807 1.071-2.447 2.878-2.774s3.34-.218 3.668 1.589z" fill="#fff"/><path d="m209.502 124.381h-170.937c-1.6586 0-3.2493.659-4.4221 1.831-1.1728 1.173-1.8317 2.764-1.8317 4.422 0 1.659.6589 3.25 1.8317 4.423 1.1728 1.172 2.7635 1.831 4.4221 1.831h170.937c1.658 0 3.249-.659 4.422-1.831 1.172-1.173 1.831-2.764 1.831-4.423 0-1.658-.659-3.249-1.831-4.422-1.173-1.172-2.764-1.831-4.422-1.831z" fill="#ccc"/><path d="m196.647 70.8761v53.8519h-.695v-53.8519c0-1.8657-.073-3.714-.219-5.545-.018-.2328-.035-.4621-.056-.6948-.995-11.2643-4.715-22.1173-10.84-31.6233-.149-.2328-.299-.4621-.451-.6949-6.354-9.6644-14.999-17.6083-25.165-23.12483-10.165-5.51658-21.537-8.434767-33.103-8.494928-.115-.003475-.233-.003478-.348-.003478-.114 0-.232.000003-.347.003478-1.317.003474-2.623.045166-3.919.125075-5.078.303213-10.108 1.161863-14.999 2.560573-2.77.79118-5.489 1.75428-8.14 2.88369-12.732 5.43642-23.5851 14.49532-31.2099 26.05042-.1528.2328-.3023.4621-.4516.6949-6.1245 9.506-9.8447 20.359-10.8399 31.6233-.0209.2327-.0382.462-.0556.6948-.1459 1.831-.2189 3.6793-.2189 5.545v53.8519h-.6948v-53.8519c0-2.1124.0914-4.2004.2744-6.2642 1.0117-11.5461 4.8606-22.6633 11.2047-32.3633 9.4288-14.5051 23.8335-25.06458 40.5036-29.6915 4.88-1.34983 9.891-2.169869 14.947-2.445919 1.306-.0729609 2.621-.11002289 3.946-.111181 17.711.0177538 34.776 6.65857 47.84 18.6175 13.064 11.9589 21.183 28.3712 22.762 46.0118.181 2.0568.272 4.1391.275 6.2468z" fill="#3f3d56"/><path d="m106.188 174.437c19.668.336 19.665 29.593-.001 29.926-19.6683-.336-19.6652-29.593.001-29.926z" fill="#2f2e41"/><path d="m103.915 201.143h-4.546v8.144h4.546z" fill="#2f2e41"/><path d="m113.006 201.143h-4.546v8.144h4.546z" fill="#2f2e41"/><path d="m103.157 207.961c4.912-.035 4.912 2.876 0 2.841-4.9118.035-4.9119-2.876 0-2.841z" fill="#2f2e41"/><path d="m112.248 207.772c4.912-.035 4.912 2.876 0 2.841-4.911.035-4.911-2.876 0-2.841z" fill="#2f2e41"/><path d="m106.566 180.498c6.688.03 6.688 10.198 0 10.227-6.6876-.03-6.687-10.198 0-10.227z" fill="#fff"/><path d="m106.566 183.907c2.212-.032 2.212 3.442 0 3.409-2.211.032-2.211-3.442 0-3.409z" fill="#3f3d56"/><path d="m91.6729 175.485c-2.8111-12.818 18.7221-17.624 21.6281-4.829 1.208 5.41-2.75 7.406-8.723 8.739-5.9719 1.334-11.6969 1.5-12.9051-3.91z" fill="#ccc"/><path d="m112.71 134.267c3.486-9.128 7.879-7.449 4.388 1.677-3.486 9.128-7.88 7.449-4.388-1.677z" fill="#2f2e41"/><path d="m86.3039 144.008c3.4821-19.361 32.3611-14.672 29.5391 4.794-3.482 19.361-32.3605 14.671-29.5391-4.794z" fill="#2f2e41"/><path d="m98.8007 158.148h-4.5457v8.144h4.5457z" fill="#2f2e41"/><path d="m107.892 158.148h-4.546v8.144h4.546z" fill="#2f2e41"/><path d="m98.0431 164.966c4.9119-.034 4.9119 2.877-.0002 2.842-4.9116.034-4.9117-2.877.0002-2.842z" fill="#2f2e41"/><path d="m107.135 164.777c4.911-.035 4.911 2.876-.001 2.841-4.911.035-4.911-2.876.001-2.841z" fill="#2f2e41"/><path d="m86.559 132.49c-2.8111-12.818 18.722-17.624 21.628-4.829 1.208 5.41-2.75 7.406-8.7225 8.739-5.9723 1.334-11.6973 1.5-12.9055-3.91z" fill="#fca311"/><path d="m77.4606 136.256c1.0575-2.846 15.055 3.793 13.5192 6.412-1.0573 2.846-15.0548-3.793-13.5192-6.412z" fill="#2f2e41"/><path d="m153.526 125.889c.96-.824-.39-3.971-3.015-7.03-2.626-3.058-5.533-4.869-6.493-4.045s.39 3.972 3.016 7.03c2.625 3.059 5.532 4.87 6.492 4.045z" fill="#2f2e41"/><path d="m120.203 121.844c2.625-3.058 3.975-6.206 3.015-7.03s-3.867.987-6.492 4.045c-2.626 3.059-3.976 6.206-3.016 7.03.96.825 3.867-.986 6.493-4.045z" fill="#2f2e41"/><g fill="#e6e6e6"><path d="m228.61 65.6653h-20.498c-.922 0-1.805-.3661-2.457-1.0177-.651-.6515-1.018-1.5352-1.018-2.4567 0-.9214.367-1.8051 1.018-2.4567.652-.6515 1.535-1.0176 2.457-1.0176v.6949c-.737 0-1.444.2928-1.966.8141-.521.5212-.814 1.2282-.814 1.9653 0 .7372.293 1.4441.814 1.9654.522.5212 1.229.8141 1.966.8141h20.498z"/><path d="m230 27.1003h-20.498c-.922 0-1.806-.366-2.457-1.0176-.652-.6516-1.018-1.5353-1.018-2.4567 0-.9215.366-1.8052 1.018-2.4567.651-.6516 1.535-1.0176 2.457-1.0176v.6948c-.738 0-1.445.2929-1.966.8141-.521.5213-.814 1.2282-.814 1.9654 0 .7371.293 1.4441.814 1.9654.521.5212 1.228.814 1.966.814h20.498z"/><path d="m29.8792 93.1124h-20.49854c-.92145 0-1.80515-.3661-2.45672-1.0176-.65156-.6516-1.0176-1.5353-1.0176-2.4567 0-.9215.36604-1.8052 1.0176-2.4567.65157-.6516 1.53527-1.0177 2.45672-1.0177v.6949c-.73716 0-1.44412.2928-1.96537.8141-.52125.5212-.81408 1.2282-.81408 1.9654 0 .7371.29283 1.4441.81408 1.9653.52125.5213 1.22821.8141 1.96537.8141h20.49854z"/><path d="m40.6496 104.925v-.695c.7371 0 1.4441-.293 1.9653-.814.5213-.521.8141-1.228.8141-1.965s-.2928-1.444-.8141-1.9656c-.5212-.5213-1.2282-.8141-1.9653-.8141h-20.4985v-.6949h20.4985c.9214 0 1.8051.3661 2.4567 1.0176.6515.6516 1.0176 1.535 1.0176 2.457 0 .921-.3661 1.805-1.0176 2.456-.6516.652-1.5353 1.018-2.4567 1.018z"/><path d="m31.2689 54.5474h-20.4985c-.92145 0-1.80515-.366-2.45672-1.0176-.65156-.6515-1.0176-1.5352-1.0176-2.4567 0-.9214.36604-1.8052 1.0176-2.4567.65157-.6516 1.53527-1.0176 2.45672-1.0176v.6948c-.7372 0-1.44412.2929-1.96537.8141-.52125.5213-.81408 1.2282-.81408 1.9654s.29283 1.4441.81408 1.9654c.52125.5212 1.22817.8141 1.96537.8141h20.4985z"/><path d="m42.0393 66.3601v-.6948c.7371 0 1.4441-.2929 1.9653-.8141.5213-.5213.8141-1.2282.8141-1.9654s-.2928-1.4441-.8141-1.9654c-.5212-.5212-1.2282-.8141-1.9653-.8141h-20.4985v-.6948h20.4985c.9214 0 1.8051.366 2.4567 1.0176.6515.6515 1.0176 1.5353 1.0176 2.4567 0 .9215-.3661 1.8051-1.0176 2.4567-.6516.6516-1.5353 1.0176-2.4567 1.0176z"/><path d="m178.927 161.556h-20.498c-.921 0-1.805-.366-2.457-1.017-.651-.652-1.017-1.535-1.017-2.457 0-.921.366-1.805 1.017-2.457.652-.651 1.536-1.017 2.457-1.017v.695c-.737 0-1.444.293-1.965.814-.522.521-.814 1.228-.814 1.965s.292 1.444.814 1.966c.521.521 1.228.814 1.965.814h20.498z"/><path d="m201.858 180.318v-.695c.737 0 1.444-.293 1.965-.814.522-.521.814-1.228.814-1.966 0-.737-.292-1.444-.814-1.965-.521-.521-1.228-.814-1.965-.814h-20.499v-.695h20.499c.921 0 1.805.366 2.457 1.018.651.651 1.017 1.535 1.017 2.456 0 .922-.366 1.806-1.017 2.457-.652.652-1.536 1.018-2.457 1.018z"/><path d="m160.166 183.792h-20.498c-.922 0-1.805-.366-2.457-1.017-.652-.652-1.018-1.536-1.018-2.457 0-.922.366-1.805 1.018-2.457.652-.651 1.535-1.018 2.457-1.018v.695c-.737 0-1.444.293-1.966.814-.521.522-.814 1.229-.814 1.966s.293 1.444.814 1.965c.522.521 1.229.814 1.966.814h20.498z"/><path d="m85.8157 182.055v-.695c.7372 0 1.4441-.293 1.9654-.814.5212-.521.8141-1.228.8141-1.965s-.2929-1.444-.8141-1.966c-.5213-.521-1.2282-.814-1.9654-.814h-20.4985v-.695h20.4985c.9215 0 1.8052.366 2.4567 1.018.6516.652 1.0176 1.535 1.0176 2.457 0 .921-.366 1.805-1.0176 2.456-.6515.652-1.5352 1.018-2.4567 1.018z"/><path d="m23.9728 190.741h-20.49848c-.92145 0-1.80516-.366-2.45672-1.018-.651559-.651-1.0176-1.535-1.0176-2.457 0-.921.366041-1.805 1.0176-2.456.65156-.652 1.53527-1.018 2.45672-1.018v.695c-.73716 0-1.44413.293-1.96537.814-.521253.521-.814086 1.228-.814086 1.965 0 .738.292833 1.445.814086 1.966.52124.521 1.22821.814 1.96537.814h20.49848z"/></g><path d="m162.211 210.892h-132.3715c-.0921 0-.1805-.037-.2457-.102-.0651-.065-.1017-.153-.1017-.246 0-.092.0366-.18.1017-.245.0652-.065.1536-.102.2457-.102h132.3715c.092 0 .181.037.246.102s.102.153.102.245c0 .093-.037.181-.102.246s-.154.102-.246.102z" fill="#3f3d56"/><path d="m49.5196 210.624c-.2677.615-1.164.084-.9-.524 1.228-2.875 2.0658-5.902 2.491-8.999.7236-5.313.3151-10.719-1.1985-15.864-.0556-.184-.1113-.371-.1668-.555-.1321-.424-.2711-.848-.4169-1.265-1.664-4.853-4.3513-9.291-7.8799-13.015-.4619-.486.2745-1.223.7366-.736 2.2362 2.34 4.1458 4.972 5.677 7.824.7318 1.358 1.3793 2.759 1.9387 4.197.219.559.424 1.125.6185 1.692 1.1385 3.375 1.8174 6.887 2.0186 10.443.3403 5.751-.6587 11.503-2.9183 16.802z" fill="#3f3d56"/><path d="m57.4757 157.526c-1.157 4.235-2.3128 8.471-3.4674 12.706-1.1987 4.384-2.395 8.767-3.589 13.147-.1703.622-.3394 1.241-.5072 1.858-.0556-.184-.1113-.371-.1668-.555-.1321-.424-.2711-.848-.417-1.265.1565-.577.3127-1.154.4725-1.73.2154-.789.4309-1.578.6464-2.366 2.008-7.359 4.0162-14.716 6.0244-22.073.0403-.129.1293-.237.2481-.302s.2581-.081.3884-.045c.1304.037.2417.122.3103.238.0686.117.0891.256.0573.387z" fill="#3f3d56"/><path d="m36.0437 159.044c-.6075 1.333-1.2204 2.683-1.4833 4.124s-.1432 3.006.6362 4.246c.6629.948 1.5482 1.719 2.5784 2.244 1.4546.83 3.3461 1.416 4.7372.484 1.4051-.942 1.5544-3.069.7673-4.566-.7872-1.497-2.2498-2.501-3.6765-3.409-1.4268-.909-2.5449-1.627-3.4701-3.043z" fill="#fca311"/><path d="m60.7992 145.463c-1.3917.457-2.7996.921-4.0372 1.705-1.2376.783-2.307 1.932-2.6905 3.346-.2474 1.13-.2138 2.303.0979 3.417.3762 1.632 1.2275 3.42 2.8558 3.81 1.6446.395 3.3098-.937 3.8768-2.531.5669-1.593.3136-3.349.0142-5.013-.2993-1.665-.5293-2.974-.1156-4.614z" fill="#fca311"/><path d="m35.8257 175.541c.3865 1.413.7798 2.842 1.5004 4.117.7205 1.276 1.8143 2.401 3.207 2.855 1.116.304 2.2895.329 3.4174.074 1.6486-.294 3.4769-1.055 3.9489-2.662.4768-1.622-.7704-3.352-2.3334-3.998-1.5631-.646-3.3294-.481-5.007-.266-1.6775.216-2.9962.38-4.6134-.116z" fill="#fca311"/><path d="m39.9948 193.955c.3866 1.412.7799 2.842 1.5005 4.117.7205 1.275 1.8143 2.401 3.207 2.855 1.116.304 2.2894.329 3.4174.073 1.6486-.293 3.4769-1.054 3.9489-2.661.4768-1.622-.7704-3.352-2.3334-3.998-1.5631-.647-3.3295-.482-5.007-.266-1.6775.215-2.9962.38-4.6134-.116z" fill="#fca311"/><path d="m62.845 181.795c-.3866 1.412-.7799 2.842-1.5004 4.117s-1.8143 2.401-3.207 2.855c-1.116.304-2.2895.329-3.4175.073-1.6485-.294-3.4768-1.054-3.9489-2.661-.4767-1.623.7705-3.352 2.3335-3.999 1.5631-.646 3.3294-.481 5.007-.265 1.6775.215 2.9962.379 4.6134-.116z" fill="#fca311"/><path d="m67.0142 163.033c-.3866 1.413-.7799 2.842-1.5004 4.118-.7205 1.275-1.8144 2.401-3.207 2.855-1.116.303-2.2895.329-3.4175.073-1.6485-.294-3.4768-1.055-3.9489-2.661-.4767-1.623.7704-3.353 2.3335-3.999s3.3294-.481 5.007-.266c1.6775.216 2.9962.38 4.6134-.115z" fill="#fca311"/><path d="m167.514 206.038c3.971 2.293 9.05.932 11.343-3.039 2.293-3.972.933-9.051-3.039-11.344s-9.051-.932-11.344 3.039c-2.293 3.972-.932 9.051 3.04 11.344z" fill="#fca311"/><path d="m214.221 123.36c-11.285-6.41-25.762-2.59-32.41 8.557-.061.103-.483.832-1.034 1.786-.808 1.399-1.027 3.062-.608 4.623.418 1.56 1.438 2.891 2.838 3.699.693.4 1.459.66 2.253.764s1.601.051 2.374-.157c.774-.207 1.499-.566 2.134-1.054s1.168-1.096 1.567-1.79c.375-.649.634-1.099.65-1.126 1.002-1.737 2.439-3.184 4.17-4.197s3.696-1.558 5.702-1.581c2.005-.024 3.982.475 5.736 1.448 1.754.972 3.225 2.384 4.268 4.098 1.043 1.713 1.621 3.668 1.679 5.673s-.407 3.99-1.349 5.76c-.942 1.771-2.329 3.266-4.024 4.338s-3.64 1.684-5.643 1.777v.003s-10.299.499-16.417 5.808l.002.002c-1.187 1.126-2.205 2.418-3.022 3.835-.336.583-3.244 5.699-5.566 9.873-.801 1.44-1.003 3.138-.563 4.726.439 1.589 1.486 2.941 2.913 3.764.717.414 1.509.683 2.331.789.821.107 1.655.051 2.454-.166.8-.217 1.548-.59 2.203-1.097.654-.507 1.202-1.139 1.612-1.859 2.164-3.801 4.698-8.219 4.883-8.539 2.351-4.072 8.621-5.861 13.375-6.644 5.475-.901 10.545-3.509 14.323-7.572.794-.827 1.496-1.739 2.091-2.719 1.581-2.738 2.604-5.762 3.011-8.897.407-3.136.19-6.321-.64-9.372-.829-3.05-2.254-5.907-4.192-8.405s-4.352-4.587-7.101-6.148z" fill="#fca311"/><path d="m185.937 140.389c-1.399-.808-2.42-2.138-2.838-3.699-.418-1.56-.199-3.223.608-4.622.551-.955.973-1.684 1.034-1.787 1.932-3.243 4.609-5.978 7.809-7.979-4.511 1.994-8.291 5.341-10.816 9.578-.061.103-.483.832-1.034 1.787-.808 1.399-1.027 3.061-.609 4.622s1.439 2.891 2.838 3.699c1.15.663 2.485.933 3.803.769 1.317-.165 2.545-.755 3.496-1.681-1.466.309-2.995.064-4.291-.687z" fill="#3f3d56"/><path d="m208.16 134.683c1.573 1.011 2.877 2.389 3.8 4.015.924 1.626 1.438 3.452 1.5 5.32.062 1.869-.33 3.725-1.143 5.409s-2.023 3.145-3.526 4.258c1.565-.557 2.992-1.444 4.182-2.602 1.191-1.158 2.118-2.559 2.718-4.108s.859-3.209.76-4.867c-.1-1.658-.556-3.275-1.337-4.741s-1.869-2.746-3.19-3.753-2.843-1.718-4.463-2.083c-1.621-.366-3.301-.377-4.926-.035-1.625.343-3.157 1.032-4.492 2.02 1.663-.593 3.44-.796 5.194-.594 1.755.202 3.439.805 4.923 1.761z" fill="#3f3d56"/><path d="m182.801 182.354c-1.427-.824-2.474-2.176-2.913-3.764-.44-1.589-.237-3.286.563-4.727 2.322-4.174 5.23-9.29 5.566-9.872.817-1.418 1.835-2.709 3.022-3.835l-.002-.002c.632-.545 1.302-1.042 2.006-1.49-1.815.775-3.505 1.816-5.013 3.089l.002.001c-1.187 1.126-2.205 2.418-3.022 3.836-.336.582-3.244 5.698-5.566 9.872-.801 1.441-1.003 3.138-.564 4.727.44 1.588 1.486 2.94 2.914 3.764 1.177.679 2.542.958 3.891.796 1.35-.163 2.61-.758 3.592-1.697-1.527.334-3.123.085-4.476-.698z" fill="#3f3d56"/><path d="m166.942 203.369c-.765-1.035-1.279-2.233-1.501-3.5-.222-1.268-.147-2.569.22-3.803.367-1.233 1.016-2.364 1.895-3.304.879-.939 1.964-1.662 3.17-2.11-1.171.126-2.302.499-3.317 1.095-1.015.597-1.892 1.402-2.573 2.363-.68.961-1.148 2.056-1.373 3.212-.225 1.155-.202 2.346.068 3.492.271 1.146.782 2.222 1.499 3.155.718.934 1.626 1.704 2.664 2.26 1.039.555 2.183.884 3.358.964 1.175.079 2.353-.092 3.457-.503-1.442.156-2.899-.069-4.226-.651-1.328-.583-2.48-1.504-3.341-2.67z" fill="#3f3d56"/></svg>