<svg fill="none" height="21" viewBox="0 0 111 21" width="111" xmlns="http://www.w3.org/2000/svg"><path d="m10.3489 9.47c-.104.16467-.2167.28167-.338.351-.11269.06933-.26002.104-.44202.104-.19067 0-.38134-.039-.572-.117-.19067-.08667-.39867-.17767-.624-.273-.21667-.09533-.46367-.182-.741-.26-.27734-.08667-.59367-.13-.949-.13-.51134 0-.90567.09967-1.183.299-.26867.19067-.403.45933-.403.806 0 .2513.08666.4593.26.624.182.1647.42033.312.715.442.29466.1213.62833.2383 1.001.351.37266.1127.754.2383 1.144.377s.77133.3033 1.144.494c.37266.182.70632.4117 1.00102.689.2946.2687.5286.598.702.988.182.39.273.858.273 1.404 0 .6673-.1214 1.2827-.364 1.846-.2427.5633-.6067 1.0487-1.09202 1.456-.47667.4073-1.07034.7237-1.781.949-.702.2253-1.51234.338-2.431.338-.45934 0-.91867-.0433-1.378-.13-.45934-.0867-.90567-.2037-1.339-.351-.42467-.1473-.819-.3207-1.183-.52-.364-.208-.676-.429-.936005-.663l.936005-1.482c.11266-.1733.247-.3077.403-.403.156-.104.35966-.156.611-.156.234 0 .442.052.624.156.19066.104.39433.2167.611.338.21666.1213.468.234.754.338.29466.104.663.156 1.105.156.312 0 .57633-.0303.793-.091.21666-.0693.39-.1603.52-.273s.22533-.2383.286-.377c.06066-.1387.091-.2817.091-.429 0-.2687-.091-.4897-.273-.663s-.42034-.3207-.715-.442c-.29467-.13-.63267-.247-1.014-.351-.37267-.1127-.754-.2383-1.144-.377s-.77567-.3033-1.157-.494c-.37267-.1993-.70634-.4463-1.00101-.741-.29466-.3033-.53299-.6717-.71499-1.105s-.273-.9577-.273-1.573c0-.572.10833-1.11367.325-1.625.22533-.52.559-.975 1.001-1.365s.99666-.69767 1.664-.923c.66733-.234 1.44733-.351 2.34-.351.48533 0 .95333.04333 1.404.13.45933.08667.88833.208 1.287.364.39866.156.76262.34233 1.09202.559.3293.208.6196.43767.871.689zm12.5171 10.53c-.3813 0-.6716-.052-.871-.156-.1906-.104-.351-.3207-.481-.65l-.286-.741c-.338.286-.663.5373-.975.754s-.637.403-.975.559c-.3293.1473-.6846.2557-1.066.325-.3726.078-.7886.117-1.248.117-.6153 0-1.1743-.078-1.677-.234-.5026-.1647-.9316-.403-1.287-.715-.3466-.312-.6153-.6977-.806-1.157-.1906-.468-.286-1.0053-.286-1.612 0-.4767.1214-.9663.364-1.469.2427-.5027.663-.9577 1.261-1.365.598-.416 1.404-.7627 2.418-1.04s2.2924-.4333 3.835-.468v-.572c0-.7887-.1646-1.3563-.494-1.703-.3206-.35533-.78-.533-1.378-.533-.4766 0-.8666.052-1.17.156-.3033.104-.5763.221-.819.351-.234.13-.4636.247-.689.351-.2253.104-.494.156-.806.156-.2773 0-.5156-.065-.715-.195-.1906-.1387-.3423-.30767-.455-.507l-.728-1.261c.8147-.71933 1.716-1.25233 2.704-1.599.9967-.35533 2.0627-.533 3.198-.533.8147 0 1.547.13433 2.197.403.6587.26 1.2134.62833 1.664 1.105.4594.468.8104 1.027 1.053 1.677.2427.65.364 1.3607.364 2.132v8.424zm-4.628-2.457c.52 0 .975-.091 1.365-.273s.7844-.4767 1.183-.884v-1.872c-.806.0347-1.469.104-1.989.208s-.9316.234-1.235.39c-.3033.156-.5156.3337-.637.533-.1126.1993-.169.416-.169.65 0 .4593.1257.7843.377.975.2514.182.6197.273 1.105.273zm9.3357 2.457v-13.481h2.496c.2513 0 .4593.05633.624.169.1733.11267.2946.28167.364.507l.234.78c.26-.24267.5286-.468.806-.676.2773-.208.572-.38133.884-.52.3206-.14733.663-.26 1.027-.338.3726-.08667.7756-.13 1.209-.13.7366 0 1.3866.13 1.95.39.572.25133 1.053.60667 1.443 1.066.39.45067.6846.99233.884 1.625.1993.624.299 1.3043.299 2.041v8.567h-4.03v-8.567c0-.6587-.1517-1.17-.455-1.534-.3034-.37267-.7497-.559-1.339-.559-.442 0-.858.09533-1.248.286s-.7627.4463-1.118.767v9.607zm24.546 0c-.2513 0-.4637-.0563-.637-.169-.1647-.1127-.2817-.2817-.351-.507l-.312-1.027c-.2687.286-.5503.546-.845.78s-.6153.4377-.962.611c-.338.1647-.7063.2903-1.105.377-.39.0953-.8147.143-1.274.143-.702 0-1.352-.156-1.95-.468s-1.1137-.7627-1.547-1.352-.7757-1.3087-1.027-2.158c-.2427-.858-.364-1.833-.364-2.925 0-1.0053.1387-1.937.416-2.795.2773-.86667.6673-1.612 1.17-2.236.5113-.63267 1.1223-1.12667 1.833-1.482s1.495-.533 2.353-.533c.6933 0 1.2783.104 1.755.312.4853.19933.923.46367 1.313.793v-6.825001h4.03v19.461001zm-4.082-2.886c.2947 0 .559-.026.793-.078.2427-.0607.4637-.143.663-.247s.3857-.234.559-.39c.182-.156.3597-.338.533-.546v-5.72c-.312-.338-.6457-.572-1.001-.702-.3467-.13867-.715-.208-1.105-.208-.3727 0-.715.07367-1.027.221s-.585.38567-.819.715c-.2253.3207-.403.741-.533 1.261s-.195 1.1483-.195 1.885c0 .7107.052 1.3087.156 1.794s.247.8797.429 1.183c.1907.2947.416.507.676.637s.5503.195.871.195zm13.86-10.595v13.481h-4.03v-13.481zm.468-3.692c0 .32067-.065.624-.195.91-.13.27733-.3076.52433-.533.741-.2253.208-.4896.377-.793.507-.2946.12133-.611.182-.949.182-.3293 0-.637-.06067-.923-.182-.286-.13-.5416-.299-.767-.507-.2166-.21667-.39-.46367-.52-.741-.1213-.286-.182-.58933-.182-.91 0-.32933.0607-.637.182-.923.13-.286.3034-.53733.52-.754.2254-.216667.481-.385667.767-.507001.286-.121333.5937-.181999.923-.181999.338 0 .6544.060666.949.181999.3034.121334.5677.290334.793.507001.2254.21667.403.468.533.754s.195.59367.195.923z" fill="#14213d"/><path d="m73.3938 9.47c-.104.16467-.2167.28167-.338.351-.1127.06933-.26.104-.442.104-.1907 0-.3813-.039-.572-.117-.1907-.08667-.3987-.17767-.624-.273-.2167-.09533-.4637-.182-.741-.26-.2773-.08667-.5937-.13-.949-.13-.5113 0-.9057.09967-1.183.299-.2687.19067-.403.45933-.403.806 0 .2513.0867.4593.26.624.182.1647.4203.312.715.442.2947.1213.6283.2383 1.001.351s.754.2383 1.144.377.7713.3033 1.144.494c.3727.182.7063.4117 1.001.689.2947.2687.5287.598.702.988.182.39.273.858.273 1.404 0 .6673-.1213 1.2827-.364 1.846s-.6067 1.0487-1.092 1.456c-.4767.4073-1.0703.7237-1.781.949-.702.2253-1.5123.338-2.431.338-.4593 0-.9187-.0433-1.378-.13s-.9057-.2037-1.339-.351c-.4247-.1473-.819-.3207-1.183-.52-.364-.208-.676-.429-.936-.663l.936-1.482c.1127-.1733.247-.3077.403-.403.156-.104.3597-.156.611-.156.234 0 .442.052.624.156.1907.104.3943.2167.611.338s.468.234.754.338c.2947.104.663.156 1.105.156.312 0 .5763-.0303.793-.091.2167-.0693.39-.1603.52-.273s.2253-.2383.286-.377.091-.2817.091-.429c0-.2687-.091-.4897-.273-.663s-.4203-.3207-.715-.442c-.2947-.13-.6327-.247-1.014-.351-.3727-.1127-.754-.2383-1.144-.377s-.7757-.3033-1.157-.494c-.3727-.1993-.7063-.4463-1.001-.741-.2947-.3033-.533-.6717-.715-1.105s-.273-.9577-.273-1.573c0-.572.1083-1.11367.325-1.625.2253-.52.559-.975 1.001-1.365s.9967-.69767 1.664-.923c.6673-.234 1.4473-.351 2.34-.351.4853 0 .9533.04333 1.404.13.4593.08667.8883.208 1.287.364s.7627.34233 1.092.559c.3293.208.6197.43767.871.689zm12.5172 10.53c-.3814 0-.6717-.052-.871-.156-.1907-.104-.351-.3207-.481-.65l-.286-.741c-.338.286-.663.5373-.975.754s-.637.403-.975.559c-.3294.1473-.6847.2557-1.066.325-.3727.078-.7887.117-1.248.117-.6154 0-1.1744-.078-1.677-.234-.5027-.1647-.9317-.403-1.287-.715-.3467-.312-.6154-.6977-.806-1.157-.1907-.468-.286-1.0053-.286-1.612 0-.4767.1213-.9663.364-1.469.2426-.5027.663-.9577 1.261-1.365.598-.416 1.404-.7627 2.418-1.04s2.2923-.4333 3.835-.468v-.572c0-.7887-.1647-1.3563-.494-1.703-.3207-.35533-.78-.533-1.378-.533-.4767 0-.8667.052-1.17.156-.3034.104-.5764.221-.819.351-.234.13-.4637.247-.689.351-.2254.104-.494.156-.806.156-.2774 0-.5157-.065-.715-.195-.1907-.1387-.3424-.30767-.455-.507l-.728-1.261c.8146-.71933 1.716-1.25233 2.704-1.599.9966-.35533 2.0626-.533 3.198-.533.8146 0 1.547.13433 2.197.403.6586.26 1.2133.62833 1.664 1.105.4593.468.8103 1.027 1.053 1.677.2426.65.364 1.3607.364 2.132v8.424zm-4.628-2.457c.52 0 .975-.091 1.365-.273s.7843-.4767 1.183-.884v-1.872c-.806.0347-1.469.104-1.989.208s-.9317.234-1.235.39c-.3034.156-.5157.3337-.637.533-.1127.1993-.169.416-.169.65 0 .4593.1256.7843.377.975.2513.182.6196.273 1.105.273zm9.3356 2.457v-13.481h2.496c.2513 0 .4593.05633.624.169.1733.11267.2947.28167.364.507l.221.728c.2253-.234.4593-.44633.702-.637.2427-.19933.5027-.36833.78-.507.286-.14733.5893-.26.91-.338.3293-.08667.689-.13 1.079-.13.8147 0 1.4863.21233 2.015.637.5374.416.9444.975 1.2224 1.677.225-.416.498-.77133.819-1.066.329-.29467.68-.533 1.053-.715.381-.182.78-.31633 1.196-.403.424-.08667.845-.13 1.261-.13.771 0 1.456.117 2.054.351.598.22533 1.096.559 1.495 1.001.407.43333.715.97067.923 1.612.208.63267.312 1.352.312 2.158v8.567h-4.03v-8.567c0-1.3953-.598-2.093-1.794-2.093-.546 0-1.001.182-1.365.546-.356.3553-.533.871-.533 1.547v8.567h-4.0304v-8.567c0-.7713-.1517-1.313-.455-1.625s-.7497-.468-1.339-.468c-.364 0-.7107.08233-1.04.247-.3207.16467-.624.38567-.91.663v9.75z" fill="#fca311"/></svg>