<svg fill="none" height="166" viewBox="0 0 229 166" width="229" xmlns="http://www.w3.org/2000/svg"><path d="m120.252 147.218c-1.264.901-2.634 1.645-4.079 2.214-.378.151-.759.291-1.146.419h-19.757c-.0799-.138-.1577-.279-.2376-.419-1.6028-2.854-3.0562-5.82-3.4685-9.045-.4943-3.871.8919-8.256 4.3182-10.158.4488-.249.9244-.447 1.4176-.59.2041-.063.4123-.113.6226-.157 1.2844-.284 2.6217-.222 3.8737.179 1.253.401 2.375 1.126 3.252 2.102s1.477 2.166 1.739 3.449c.261 1.283.175 2.612-.251 3.85 2.904-2.963 2.362-7.768 1.36-11.784-1.003-4.016-2.219-8.486-.176-12.094 1.134-2.007 3.13-3.252 5.368-3.755.069-.014.138-.029.206-.042 2.668-.537 5.442-.054 7.767 1.354 4.283 2.683 6.481 7.775 7.194 12.76 1.15 8.024-1.395 16.977-8.003 21.717z" fill="#f2f2f2"/><path d="m99.4726 132.039c1.5814 3.195 2.0864 6.812 1.4384 10.315-.488 2.569-1.565 4.991-3.1464 7.078-.1072.142-.2166.283-.3281.419h-.7804c.12-.136.2377-.277.3492-.419 1.4363-1.78 2.4776-3.843 3.0557-6.052.578-2.209.679-4.515.297-6.766-.453-2.532-1.5009-4.922-3.0582-6.975.204-.063.4122-.113.6226-.157.5923.804 1.1111 1.66 1.5502 2.557z" fill="#fff"/><path d="m118.373 134.356c-.169 1.769-.596 3.505-1.268 5.152-.62 1.458-1.455 2.815-2.478 4.027-2.088 2.501-4.852 4.382-7.854 5.633-.219.093-.439.18-.662.264-.387.151-.779.289-1.172.419h-2.131c.503-.126 1.004-.266 1.498-.419 1.175-.364 2.322-.814 3.431-1.346 2.818-1.329 5.265-3.326 7.126-5.815 1.996-2.742 2.877-6.038 3.029-9.389.159-3.585-.31-7.234-1.132-10.723-.839-3.576-2.116-7.036-3.801-10.303-.037-.074-.045-.159-.021-.239.024-.079.077-.147.15-.188.06-.04.134-.055.206-.042.035.009.067.026.095.049s.05.052.064.085c.209.404.413.808.608 1.216 1.634 3.403 2.837 6.993 3.582 10.69.722 3.566 1.109 7.298.73 10.929z" fill="#fff"/><g fill="#3f3d56"><path d="m30.5141 90.4156c-1.7472 0-3.4551-.5155-4.9079-1.4813-1.4528-.9659-2.585-2.3386-3.2537-3.9447-.6686-1.6061-.8435-3.3734-.5027-5.0785.3409-1.705 1.1822-3.2712 2.4177-4.5005 1.2355-1.2292 2.8096-2.0664 4.5232-2.4055 1.7136-.3392 3.4899-.1651 5.1041.5002 1.6142.6652 2.9939 1.7918 3.9646 3.2373s1.4888 3.1449 1.4888 4.8833c-.0026 2.3304-.9342 4.5645-2.5904 6.2123-1.6561 1.6479-3.9015 2.5748-6.2437 2.5774zm0-17.1608c-1.664 0-3.2906.4909-4.6742 1.4108-1.3836.9198-2.4619 2.2272-3.0987 3.7568s-.8034 3.2128-.4788 4.8366c.3246 1.6239 1.1259 3.1155 2.3026 4.2862 1.1766 1.1707 2.6757 1.968 4.3078 2.291 1.632.323 3.3237.1572 4.861-.4764 1.5374-.6336 2.8514-1.7065 3.7758-3.0831.9245-1.3767 1.4179-2.9951 1.4179-4.6508-.0025-2.2194-.8897-4.3472-2.467-5.9165-1.5772-1.5694-3.7158-2.4521-5.9464-2.4546z"/><path d="m66.2711 62.163c-1.7472 0-3.4552-.5155-4.9079-1.4813-1.4528-.9659-2.5851-2.3386-3.2537-3.9447s-.8436-3.3735-.5027-5.0785c.3408-1.705 1.1822-3.2712 2.4177-4.5005 1.2354-1.2292 2.8095-2.0664 4.5232-2.4055 1.7136-.3392 3.4898-.1651 5.104.5002 1.6143.6652 2.994 1.7918 3.9647 3.2373s1.4888 3.1449 1.4888 4.8833c-.0027 2.3304-.9343 4.5645-2.5904 6.2123s-3.9016 2.5747-6.2437 2.5774zm0-17.1609c-1.664 0-3.2907.491-4.6742 1.4108-1.3836.9199-2.462 2.2273-3.0988 3.7569s-.8034 3.2128-.4787 4.8366c.3246 1.6239 1.1259 3.1155 2.3025 4.2862 1.1767 1.1707 2.6758 1.968 4.3078 2.291 1.6321.323 3.3237.1572 4.8611-.4764 1.5373-.6336 2.8513-1.7065 3.7758-3.0832.9245-1.3766 1.4179-2.9951 1.4179-4.6507-.0025-2.2194-.8897-4.3472-2.467-5.9165-1.5773-1.5694-3.7158-2.4521-5.9464-2.4547z"/><path d="m104.552 48.7692c-1.747 0-3.455-.5155-4.9078-1.4814-1.4528-.9658-2.5851-2.3385-3.2537-3.9446-.6686-1.6062-.8436-3.3735-.5027-5.0785.3408-1.705 1.1822-3.2712 2.4177-4.5005 1.2354-1.2292 2.8095-2.0664 4.5235-2.4055 1.713-.3392 3.49-.1651 5.104.5002 1.614.6652 2.994 1.7918 3.964 3.2373.971 1.4454 1.489 3.1448 1.489 4.8833-.002 2.3303-.934 4.5645-2.59 6.2123s-3.902 2.5747-6.244 2.5774zm0-17.1609c-1.664 0-3.291.491-4.6741 1.4108-1.3836.9199-2.462 2.2273-3.0988 3.7569s-.8034 3.2128-.4787 4.8366c.3246 1.6239 1.1259 3.1154 2.3025 4.2862 1.1767 1.1707 2.6761 1.968 4.3081 2.291s3.323.1572 4.861-.4764c1.537-.6336 2.851-1.7065 3.776-3.0832.924-1.3766 1.418-2.9951 1.418-4.6507-.003-2.2194-.89-4.3472-2.467-5.9165-1.578-1.5694-3.716-2.4522-5.947-2.4547z"/><path d="m145.357 62.5816c-1.747 0-3.455-.5156-4.908-1.4814s-2.585-2.3386-3.254-3.9447c-.668-1.6061-.843-3.3734-.502-5.0784.341-1.7051 1.182-3.2712 2.417-4.5005 1.236-1.2293 2.81-2.0664 4.524-2.4056 1.713-.3391 3.49-.165 5.104.5002 1.614.6653 2.994 1.7919 3.964 3.2374.971 1.4454 1.489 3.1448 1.489 4.8833-.002 2.3303-.934 4.5645-2.59 6.2123s-3.902 2.5747-6.244 2.5774zm0-17.1609c-1.664 0-3.291.491-4.674 1.4108-1.384.9198-2.462 2.2272-3.099 3.7569-.637 1.5296-.803 3.2127-.479 4.8366.325 1.6238 1.126 3.1154 2.303 4.2861 1.177 1.1708 2.676 1.968 4.308 2.291 1.632.3231 3.323.1573 4.861-.4763 1.537-.6336 2.851-1.7066 3.776-3.0832.924-1.3766 1.418-2.9951 1.418-4.6507-.003-2.2194-.89-4.3472-2.467-5.9166-1.578-1.5693-3.716-2.4521-5.947-2.4546z"/><path d="m182.797 83.7187c-1.747 0-3.455-.5155-4.908-1.4813-1.453-.9659-2.585-2.3386-3.254-3.9447s-.843-3.3735-.503-5.0785c.341-1.705 1.183-3.2712 2.418-4.5005 1.236-1.2292 2.81-2.0664 4.523-2.4055 1.714-.3392 3.49-.1651 5.104.5002 1.615.6652 2.994 1.7918 3.965 3.2373s1.489 3.1449 1.489 4.8833c-.003 2.3304-.934 4.5645-2.591 6.2123-1.656 1.6478-3.901 2.5748-6.243 2.5774zm0-17.1609c-1.664 0-3.291.491-4.675 1.4108-1.383.9199-2.461 2.2273-3.098 3.7569s-.804 3.2128-.479 4.8366c.325 1.6239 1.126 3.1155 2.303 4.2862 1.176 1.1707 2.675 1.968 4.307 2.291s3.324.1572 4.861-.4764c1.538-.6336 2.852-1.7065 3.776-3.0832.925-1.3766 1.418-2.9951 1.418-4.6507-.002-2.2194-.89-4.3472-2.467-5.9165-1.577-1.5694-3.716-2.4522-5.946-2.4547z"/><path d="m71.3192 50.9661 1.0516-.2092s-.8834.9836-1.0516 1.0464c-.0157.2089-.0157.4188 0 .6278-2.0193 8.6223-9.4651 4.8134-9.4651 4.8134 2.7133.0628 2.9447-1.0464 2.9447-1.0464-1.5775-.2302-1.893-1.2557-1.893-1.2557.1415.0743.3056.094.4608.0554.1553-.0386.2907-.1328.3805-.2646-1.7037-.4395-1.4724-2.0928-1.4724-2.0928.3037.2181.6586.355 1.0307.3976-.1893-.2302-1.7879-2.1346-.8203-3.1183 0 0 1.1779 2.0928 4.2698 2.2812l.2103-.0419c-.0357-.1507-.0499-.3057-.042-.4604 0-.5828.2326-1.1417.6468-1.5538s.9759-.6436 1.5617-.6436c1.4723 0 1.7878.8371 1.7878.8371l1.0517-.6278c-.021 0-.1262 1.0464-.652 1.2556z"/><path d="m106.958 35.6313c.589.0017 1.152.2351 1.569.6491.416.414.65.975.652 1.5605v4.4189c-.002.5855-.236 1.1465-.652 1.5605-.417.414-.98.6474-1.569.6492h-4.441c-.588-.0018-1.152-.2352-1.568-.6492-.417-.414-.651-.975-.653-1.5605v-4.4189c.002-.5855.236-1.1465.653-1.5605.416-.414.98-.6474 1.568-.6491zm0-.8838h-4.441c-.824.0024-1.613.3291-2.196.9087-.5823.5796-.9106 1.365-.913 2.1847v4.4189c.0024.8197.3307 1.6051.913 2.1847.583.5796 1.372.9063 2.196.9087h4.441c.824-.0024 1.613-.3291 2.196-.9087.582-.5796.911-1.365.913-2.1847v-4.4189c-.002-.8197-.331-1.6051-.913-2.1847-.583-.5796-1.372-.9063-2.196-.9087z"/><path d="m107.624 37.8409c-.176-.0004-.345-.0703-.469-.1945-.124-.1241-.194-.2923-.194-.4676s.07-.3434.195-.4673.294-.1934.47-.1934.345.0695.47.1934c.124.1239.194.292.195.4673 0 .1753-.07.3435-.194.4676-.125.1242-.294.1941-.47.1945-.001 0-.002 0-.003 0z"/><path d="m104.738 38.2827c.351 0 .694.1036.987.2979.292.1942.519.4703.654.7933.134.323.17.6784.101 1.0213-.068.3429-.238.6579-.486.9051-.249.2472-.565.4156-.91.4838-.344.0682-.702.0332-1.026-.1006-.325-.1338-.602-.3604-.798-.6511-.195-.2907-.299-.6324-.299-.9821 0-.4688.187-.9184.52-1.2499.334-.3315.785-.5177 1.257-.5177zm0-.8838c-.527 0-1.043.1555-1.481.4469-.438.2913-.78.7054-.981 1.1899-.202.4845-.255 1.0176-.152 1.5319s.357.9868.729 1.3576c.373.3708.848.6233 1.365.7256s1.052.0498 1.539-.1509.903-.5405 1.196-.9765.449-.9487.449-1.4731c0-.7032-.28-1.3776-.78-1.8748s-1.178-.7766-1.884-.7766z"/></g><path d="m55.9012 147.074-2.5099-.589 1.0864-9.912 3.7044.868z" fill="#ffb8b8"/><path d="m55.9681 149.645-8.0931-1.897.0242-.102c.0974-.412.2754-.8.5237-1.144.2483-.343.5622-.634.9236-.856.3614-.223.7633-.372 1.1828-.44s.8483-.053 1.262.044h.0002l4.9429 1.158z" fill="#2f2e41"/><path d="m65.6822 147.157h-2.5787l-1.2267-9.896h3.8058z" fill="#ffb8b8"/><path d="m66.3398 149.645-8.3147-.001v-.104c0-.423.0837-.842.2464-1.233.1626-.39.401-.745.7015-1.044s.6573-.536 1.05-.698c.3926-.162.8134-.245 1.2384-.245h.0003 5.0782z" fill="#2f2e41"/><path d="m79.6093 108.019c.1727-.28.2816-.594.319-.921.0374-.326.0024-.657-.1026-.969-.1049-.311-.2773-.596-.5049-.835-.2277-.238-.505-.423-.8125-.543l-7.5499-19.0496-4.2005 2.5371 8.7421 17.9265c-.1684.528-.1365 1.098.0897 1.604.2262.505.6309.911 1.1374 1.139.5065.229 1.0797.265 1.6109.101s.9835-.516 1.2713-.99z" fill="#ffb8b8"/><path d="m72.563 88.8517-4.7988 1.7674c-.1366.0503-.2824.0707-.4276.0599-.1452-.0109-.2863-.0527-.4137-.1227-.1275-.07-.2383-.1666-.3249-.283-.0866-.1165-.1469-.2501-.1769-.3919l-1.0508-4.967c-.2545-.6965-.2211-1.465.0929-2.1371.314-.672.8831-1.1927 1.5824-1.448.6993-.2552 1.4718-.2242 2.1481.0864s1.2013.8753 1.4598 1.5704l2.4461 4.4356c.07.127.1117.2675.1222.412.0104.1445-.0105.2895-.0614.4252-.051.1357-.1307.2589-.2338.3612s-.2271.1813-.3636.2316z" fill="#fca311"/><path d="m65.5109 143.605c-.0126 0-.0252 0-.0379-.001l-3.6551-.145c-.247-.009-.4808-.113-.6508-.292s-.2626-.416-.2578-.662l.2805-20.091c.0011-.081-.0291-.159-.0843-.218-.0553-.059-.1314-.095-.2125-.1s-.1609.022-.2228.074c-.062.052-.1012.126-.1097.207l-2.1203 20.113c-.0221.204-.1108.396-.2526.546-.1419.15-.3291.25-.5332.284l-.0126.002-3.4314-.268c-.1352.021-.2734.012-.4048-.026-.1315-.038-.2531-.103-.3566-.192-.1036-.089-.1864-.2-.243-.324-.0565-.124-.0854-.258-.0846-.394l.2052-34.067 16.8375 1.061-3.7124 33.654c-.0261.23-.1364.443-.3099.598-.1734.154-.398.24-.6309.241z" fill="#2f2e41"/><path d="m62.4332 78.313c2.8532 0 5.1661-2.3013 5.1661-5.1401s-2.3129-5.1401-5.1661-5.1401c-2.8531 0-5.166 2.3013-5.166 5.1401s2.3129 5.1401 5.166 5.1401z" fill="#ffb8b8"/><path d="m69.3269 110.612c-.0237 0-.0475-.001-.0715-.003l-15.5613-1.133c-.2419-.017-.4678-.126-.6311-.305-.1632-.178-.2514-.412-.2462-.654l.4103-19.4427c-.0275-1.1929.19-2.3789.6391-3.4854s1.1204-2.1101 1.9728-2.9495c.8525-.8394 1.8681-1.4969 2.9847-1.9323 1.1167-.4353 2.3109-.6394 3.5095-.5996 1.1986.0397 2.3765.3224 3.4616.8307 1.085.5083 2.0544 1.2316 2.8488 2.1256s1.3971 1.9398 1.7712 3.0736c.3741 1.1337.5118 2.3315.4046 3.52-.2721 2.9965-.4886 16.0876-.5484 20.0276-.0039.247-.105.483-.2816.656s-.4145.27-.6625.271z" fill="#fca311"/><path d="m41.5952 78.9454c.0258.1129.0427.2277.0503.3432l9.0355 5.1864 2.1962-1.258 2.3413 3.0497-3.6704 2.6029c-.2966.2103-.6536.3192-1.0177.3104-.364-.0089-.7153-.1349-1.0012-.3593l-9.3171-7.3135c-.4205.1549-.8784.1787-1.3128.0683-.4344-.1103-.8248-.3497-1.1191-.6862-.2944-.3365-.4788-.7542-.5287-1.1975-.05-.4434.0369-.8913.2491-1.2843s.5396-.7124.9386-.9158c.3991-.2033.851-.281 1.2955-.2226s.8606.2501 1.1929.5495c.3324.2995.5652.6925.6676 1.1268z" fill="#ffb8b8"/><path d="m50.8052 83.9566c.0272-.1326.0828-.2578.1631-.3671.0802-.1092.1832-.2.302-.266l4.1463-2.3068c.5509-.4228 1.2478-.611 1.938-.5234.6901.0875 1.3172.4438 1.7438.9906s.618 1.2396.5321 1.9266c-.0859.6869-.4419 1.312-.9902 1.7382l-3.3059 3.4157c-.0943.0974-.2087.1735-.3353.2231-.1266.0495-.2624.0713-.3982.0639s-.2684-.0438-.3888-.1068-.2257-.1511-.3088-.2582l-2.9202-3.7658c-.0832-.1071-.1421-.2308-.1728-.3627s-.0325-.2687-.0051-.4013z" fill="#fca311"/><path d="m65.1029 77.2423c-.7951-.0058-1.5757-.2121-2.2689-.5994-.6933-.3874-1.2766-.9432-1.6955-1.6156-.0455-.0709-.2942-.4343-.5821-.8549-.8091-1.1821-.9988-1.4633-1.0149-1.5046-.2189-.562-.9139-.779-1.4583-.8622-.1016-.0156-.2046-.0293-.3079-.0432-.7668-.1021-1.5597-.2078-1.9944-1.0463-.3189-.6154-.8403-3.1212-.4398-3.7335.502-.7681 1.4661-.5187 2.3985-.2774.5966.1541 1.2134.3137 1.7049.212 2.1306-.4411 4.5454-.941 6.6779.3513 1.6973 1.0282 2.7182 2.9701 2.6643 5.068-.0578 2.2528-1.0453 4.0311-2.6415 4.757l-.3323.0963-.1869.0229c-.1737.0197-.3483.0296-.5231.0296z" fill="#2f2e41"/><path d="m183.106 69.2364c-1.33.0001-2.62.4556-3.652 1.2901-1.033.8345-1.745 1.9971-2.018 3.2925s-.089 2.6447.52 3.8213 1.607 2.1088 2.825 2.64c-.024-.4433.01-.8879.101-1.3226.111-.4683.745-3.1418.745-3.1418-.127-.287-.19-.5975-.186-.9109 0-.8543.496-1.4924 1.117-1.4924.527 0 .781.3937.781.8646 0 .5275-.339 1.3148-.512 2.0456-.035.1354-.037.277-.006.4133.03.1363.093.2635.182.3715.089.1079.202.1935.331.2498.128.0563.268.0818.408.0745 1.097 0 1.836-1.4024 1.836-3.0647 0-1.2634-.856-2.2077-2.41-2.2077-1.756 0-2.852 1.3045-2.852 2.761-.018.4106.119.8131.382 1.1296.047.038.08.0896.094.1474.015.0578.011.1188-.011.1742-.028.1055-.09.3603-.119.4632-.005.0311-.017.0606-.036.086s-.043.0461-.071.0601c-.029.0141-.06.0213-.092.0209-.031-.0003-.062-.0082-.09-.0229-.81-.3294-1.187-1.2094-1.187-2.2026 0-1.6366 1.388-3.5999 4.14-3.5999 2.211 0 3.667 1.5928 3.667 3.3014 0 2.2618-1.265 3.9498-3.127 3.9498-.625 0-1.212-.3371-1.414-.7179 0 0-.336 1.3277-.409 1.585-.134.4372-.33.8531-.582 1.2351.797.2342 1.635.2951 2.458.1787.822-.1165 1.61-.4075 2.309-.8535.7-.446 1.295-1.0364 1.745-1.7312.45-.6949.744-1.4779.864-2.296.119-.818.06-1.652-.174-2.4454-.233-.7934-.635-1.5275-1.178-2.1527-.544-.6252-1.216-1.1268-1.972-1.4707-.755-.344-1.576-.5222-2.407-.5227z" fill="#3f3d56"/><path d="m150.484 50.3318-7.451-2.2808c-.094-.034-.194-.0491-.294-.0444-.101.0047-.199.029-.29.0716-.09.0426-.172.1026-.239.1765-.068.074-.12.1605-.153.2545l-2.298 7.4301c-.056.2014-.033.4169.065.6019s.264.3256.463.3928l7.448 2.2802c.199.0523.41.0248.588-.0767.178-.1014.309-.2686.364-.4653l2.298-7.43c.03-.0924.041-.19.032-.2868-.009-.0967-.038-.1906-.085-.2759s-.111-.1601-.188-.2199-.165-.1033-.26-.1278zm-7.736 5.7372-1.279-.3915 1.224-3.9567 1.279.3915zm.815-4.7405-.01-.0028c-.183-.0575-.336-.1852-.426-.3549-.089-.1697-.107-.3678-.05-.5507.058-.1829.185-.3358.356-.4252.17-.0893.369-.1079.553-.0515.184.0563.338.1829.428.3521.091.1691.11.367.054.5503s-.183.337-.352.4275c-.17.0905-.369.1103-.553.0552zm3.86 6.1714-1.279-.3915.669-2.1635c.16-.5183.083-.9294-.379-1.071-.145-.0432-.3-.0405-.444.0077-.143.0482-.268.1394-.357.2612-.066.0902-.113.1915-.141.299l-.697 2.2537-1.279-.3915 1.223-3.9568 1.279.3915-.17.5507c.179-.1648.398-.2787.636-.3297.238-.0511.486-.0374.716.0395.84.257 1.305 1.0021.938 2.1892z" fill="#3f3d56"/><path clip-rule="evenodd" d="m36.2891 81.6604c-.0002-1.098-.3166-2.173-.9117-3.0977-.5952-.9247-1.4442-1.6603-2.4465-2.1199-1.0023-.4595-2.1159-.6236-3.2091-.473-1.0931.1507-2.12.6098-2.959 1.3231-.8391.7132-1.4551 1.6508-1.7753 2.7016s-.331 2.1709-.0312 3.2277c.2997 1.0567.8975 2.0059 1.7226 2.7351.8251.7293 1.8429 1.208 2.9329 1.3796v-4.015h-1.4667v-1.6615h1.4667v-1.2662c0-1.4398.8624-2.2358 2.1814-2.2358.4331.006.8652.0436 1.2929.1124v1.4142h-.7286c-.717 0-.9413.4427-.9413.8978v1.0779h1.6016l-.2558 1.6614h-1.3458v4.0153c1.3585-.2141 2.5957-.9035 3.489-1.9441.8932-1.0407 1.384-2.3644 1.3839-3.7329z" fill="#3f3d56" fill-rule="evenodd"/><path d="m191.532 149.641c0 .056-.022.109-.062.148-.039.039-.093.062-.148.062h-169.5304c-.0558 0-.1093-.022-.1487-.062-.0395-.039-.0616-.092-.0616-.148 0-.055.0221-.108.0616-.148.0394-.039.0929-.061.1487-.061h169.5304c.055 0 .109.022.148.062.04.039.062.092.062.147z" fill="#3f3d56"/><path d="m164.5 148.197c5.626 0 10.187-4.557 10.187-10.178 0-5.62-4.561-10.177-10.187-10.177-5.627 0-10.188 4.557-10.188 10.177 0 5.621 4.561 10.178 10.188 10.178z" fill="#2f2e41"/><path d="m160.626 144.706-4.958 2.481 1.386 2.764 4.958-2.48z" fill="#2f2e41"/><path d="m157.707 149.671c.294-.446-.431-1.442-1.621-2.225-1.189-.784-2.391-1.057-2.685-.612-.294.446.432 1.442 1.621 2.225s2.391 1.057 2.685.612z" fill="#2f2e41"/><path d="m168.374 144.706-1.386 2.765 4.958 2.48 1.386-2.764z" fill="#2f2e41"/><path d="m173.978 149.059c1.189-.783 1.915-1.779 1.621-2.225-.295-.445-1.497-.172-2.686.612-1.189.783-1.915 1.779-1.621 2.225.294.445 1.497.171 2.686-.612z" fill="#2f2e41"/><path d="m163.787 139.008c1.922 0 3.481-1.557 3.481-3.478s-1.559-3.478-3.481-3.478c-1.923 0-3.482 1.557-3.482 3.478s1.559 3.478 3.482 3.478z" fill="#fff"/><path d="m161.748 135.614c1.242-.945 2.646.458 1.7 1.699-1.242.945-2.646-.458-1.7-1.699z" fill="#3f3d56"/><path d="m172.536 126.947c.153-3.767-3.097-6.959-7.26-7.128s-7.662 2.749-7.815 6.517 2.741 4.624 6.903 4.793c4.163.168 8.019-.414 8.172-4.182z" fill="#ccc"/><path d="m178.408 143.349c.67-.575-.272-2.77-2.104-4.902-1.833-2.132-3.861-3.395-4.531-2.821-.671.575.272 2.77 2.104 4.902 1.833 2.133 3.861 3.395 4.531 2.821z" fill="#2f2e41"/><path d="m155.151 140.528c1.832-2.132 2.774-4.327 2.104-4.902-.67-.574-2.698.689-4.531 2.821-1.832 2.132-2.774 4.327-2.104 4.902.67.574 2.698-.688 4.531-2.821z" fill="#2f2e41"/><path d="m167.298 142.03c.055.3.05.608-.014.905-.065.298-.187.581-.36.831-.174.251-.395.465-.651.63s-.543.278-.843.333-.608.05-.906-.015c-.298-.064-.581-.187-.831-.36-.251-.174-.465-.395-.63-.651s-.278-.542-.333-.842v-.005c-.229-1.26.747-1.706 2.008-1.934s2.331-.152 2.56 1.108z" fill="#fff"/><path d="m175.535 101.183c1.029-2.6915 1.179-5.1349.333-5.4578s-2.366 1.5969-3.395 4.2878c-1.03 2.691-1.179 5.135-.334 5.458.846.323 2.366-1.597 3.396-4.288z" fill="#2f2e41"/><path d="m174.659 110.148c.924-5.688-2.942-11.047-8.635-11.9699-5.693-.923-11.057 2.9399-11.981 8.6269-.924 5.688 2.942 11.047 8.635 11.97s11.058-2.94 11.981-8.627z" fill="#2f2e41"/><path d="m162.765 116.664h-3.173v5.679h3.173z" fill="#2f2e41"/><path d="m169.11 116.664h-3.173v5.679h3.173z" fill="#2f2e41"/><path d="m162.236 123.4c1.46 0 2.644-.444 2.644-.991s-1.184-.99-2.644-.99-2.644.443-2.644.99 1.184.991 2.644.991z" fill="#2f2e41"/><path d="m168.581 123.268c1.46 0 2.644-.444 2.644-.991s-1.184-.99-2.644-.99-2.644.443-2.644.99 1.184.991 2.644.991z" fill="#2f2e41"/><path d="m164.72 109.399c1.971-.058 3.521-1.7 3.463-3.669-.058-1.968-1.702-3.517-3.672-3.459-1.971.058-3.521 1.7-3.463 3.669.058 1.968 1.702 3.517 3.672 3.459z" fill="#fff"/><path d="m164.616 107.024c.657 0 1.189-.532 1.189-1.189 0-.656-.532-1.188-1.189-1.188-.658 0-1.19.532-1.19 1.188 0 .657.532 1.189 1.19 1.189z" fill="#3f3d56"/><path d="m154.221 98.7739c-.843-3.7727 1.852-7.5849 6.02-8.5148 4.169-.9298 8.231 1.3748 9.075 5.1476.843 3.7727-1.92 5.1643-6.088 6.0943s-8.164 1.046-9.007-2.7271z" fill="#fca311"/><path d="m157.307 105.871c.387-.817-1.41-2.481-4.016-3.715-2.605-1.235-5.032-1.573-5.42-.756s1.41 2.48 4.015 3.715c2.606 1.235 5.033 1.573 5.421.756z" fill="#2f2e41"/><path d="m159.222 112.24c0 1.021 2.631 3.038 5.552 3.038 2.92 0 5.658-2.875 5.658-3.896s-2.738.198-5.658.198c-2.921 0-5.552-.361-5.552.66z" fill="#fff"/><path d="m184.504 106.24-7.687 1.499c-.124.025-.253.021-.375-.011-.123-.033-.237-.093-.333-.176-.098-.084-.175-.189-.226-.307-.052-.119-.075-.247-.069-.376.131-3.149-.481-6.285-1.788-9.1536-.055-.117-.081-.2449-.078-.3738.002-.1289.035-.2555.094-.3701.058-.1129.14-.2112.242-.2873.101-.0761.219-.1281.343-.152l7.688-1.4991c.196-.0379.4-.0049.574.0931.175.098.308.2546.378.4421 1.137 3.1558 1.784 6.4667 1.918 9.8177.007.2-.059.396-.183.552-.125.156-.301.264-.498.302z" fill="#ff6584"/><path d="m150.799 113.265-7.687 1.5c-.124.024-.253.02-.376-.012-.122-.033-.236-.093-.332-.176-.098-.083-.176-.189-.227-.307s-.074-.247-.068-.376c.131-3.149-.482-6.285-1.789-9.153-.054-.117-.08-.245-.078-.374.003-.129.035-.256.095-.37.057-.113.14-.211.242-.288.101-.076.219-.128.343-.152l7.687-1.499c.197-.038.4-.005.575.093.174.098.308.255.378.443 1.137 3.155 1.784 6.466 1.918 9.818.006.2-.059.395-.184.551-.124.157-.301.264-.497.302z" fill="#ccc"/><path d="m161.015 148.616-7.687 1.499c-.124.024-.253.02-.376-.012-.122-.033-.236-.092-.332-.175-.098-.084-.175-.19-.227-.308-.051-.118-.074-.247-.068-.376.131-3.149-.482-6.285-1.789-9.153-.054-.117-.08-.245-.078-.374.003-.129.035-.256.095-.37.057-.113.14-.211.242-.287.101-.077.219-.129.343-.153l7.687-1.499c.197-.037.4-.005.575.093.174.098.308.255.378.443 1.137 3.155 1.784 6.466 1.918 9.818.006.2-.059.395-.184.551-.124.157-.301.264-.497.303z" fill="#fca311"/><path d="m11.2785 108.918h-9.96036c-.325217 0-.637006-.129-.866969-.359-.229962-.23-.3593184-.541-.3596793-.866v-11.7428c.0003609-.3249.1297173-.6364.3596793-.8661.229963-.2298.541752-.359.866969-.3593h9.96036c.3253.0003.637.1295.867.3593.23.2297.3593.5412.3597.8661v11.7428c-.0004.325-.1297.636-.3597.866s-.5418.359-.867.359z" fill="#fca311"/><path d="m44.3665 30.6427-8.626-4.9802c-.2815-.1629-.4869-.4307-.5711-.7446-.0843-.314-.0406-.6484.1215-.93l5.8713-10.1694c.1628-.2812.4306-.4863.7446-.5703.314-.0839.6487-.04.9305.1223l8.6259 4.9802c.2815.163.4869.4308.5712.7447.0843.314.0405.6484-.1216.93l-5.8713 10.1694c-.1628.2812-.4305.4862-.7445.5702-.3141.084-.6487.04-.9305-.1223z" fill="#fca311"/><path d="m173.341 23.4695-8.626-4.9802c-.281-.1629-.486-.4307-.571-.7447-.084-.3139-.04-.6484.122-.9299l5.871-10.16944c.163-.2812.431-.48628.745-.57026s.648-.04.93.1223l8.626 4.9802c.282.1629.487.4307.571.7447.085.3139.041.6484-.121.9299l-5.872 10.1694c-.162.2812-.43.4863-.744.5703s-.649.04-.931-.1223z" fill="#ccc"/><path d="m133.784 163.438-9.723 2.162c-.317.07-.65.012-.924-.163-.274-.174-.468-.45-.539-.767l-2.549-11.463c-.07-.317-.012-.649.163-.923.174-.274.451-.468.768-.539l9.723-2.162c.318-.071.65-.012.924.162.275.174.469.45.539.767l2.55 11.463c.07.317.011.649-.163.924-.175.274-.451.468-.769.539z" fill="#ccc"/><path d="m118.885 85.7761h-9.96c-.326-.0003-.637-.1296-.867-.3593-.23-.2298-.36-.5413-.36-.8662v-11.7426c0-.3249.13-.6364.36-.8661.23-.2298.541-.359.867-.3594h9.96c.325.0004.637.1296.867.3594.23.2297.359.5412.36.8661v11.7426c-.001.3249-.13.6364-.36.8662-.23.2297-.542.359-.867.3593z" fill="#ff6584"/><path d="m227.938 122.508-8.626 4.98c-.282.163-.617.207-.931.123s-.582-.289-.744-.571l-5.872-10.169c-.162-.281-.205-.616-.121-.93s.29-.582.571-.745l8.626-4.98c.282-.162.616-.206.93-.122s.582.289.745.57l5.871 10.17c.162.281.206.616.122.93s-.29.581-.571.744z" fill="#ff6584"/><path d="m99.3748 13.4677-8.626 4.9801c-.2818.1623-.6165.2063-.9305.1223-.314-.0839-.5818-.289-.7445-.5702l-5.8714-10.16943c-.1621-.28156-.2058-.616-.1215-.92995.0842-.31394.2897-.58175.5711-.74467l8.626-4.98019c.2818-.1623.6164-.206279.9304-.1223.3141.08398.5818.28907.7446.57027l5.8713 10.16937c.1622.2816.2057.616.1216.93-.0843.3139-.2897.5817-.5711.7447z" fill="#ff6584"/></svg>