<svg fill="none" height="24" viewBox="0 0 20 24" width="20" xmlns="http://www.w3.org/2000/svg"><path clip-rule="evenodd" d="m1 15c0 2.6604 3 5.3271 9 8 6-2.6667 9-5.3333 9-8 0-.3814.0017-1.1967.0038-2.2053.0062-2.95759.0159-7.57747-.0038-7.7947 0-.76759-.2946-.94599-1.1099-1.43971-.2469-.14949-.5415-.32788-.8901-.56029-1.5-1-4.0048-2-7-2-3.43679 0-6.83821 1.89214-7 2-.34861.23241-.64321.4108-.89007.56029-.81533.49372-1.10993.67212-1.10993 1.43971zm16.0018-1.2453c-.0012.6291-.0018 1.015-.0018 1.2453 0 1.5142-2.2278 3.5737-6.9991 5.802-4.77179-2.2333-7.0009-4.2935-7.0009-5.802v-9.63667l.12779-.0793.00001-.00001c.32337-.20061.74484-.46208.9816-.61992.91924-.61282 3.72869-1.6641 5.8906-1.6641 2.2602 0 4.4143.67992 5.8906 1.6641.2368.15784.6582.41932.9816.61993l.1374.08525c.0021.59254.0031 2.50836-.0006 4.74052-.0008.5174-.0018 1.0597-.0031 1.6916zm-4.0018-4.7547c1.1046 0 2 .89543 2 2v4c0 1.1046-.8954 2-2 2h-6c-1.10457 0-2-.8954-2-2v-4c0-1.10457.89543-2 2-2v-2c0-1.65685 1.34315-3 3-3 1.6569 0 3 1.34315 3 3zm-2-2v2h-2v-2c0-.55228.44771-1 1-1 .5523 0 1 .44772 1 1zm-4 8v-4h6v4zm2-2c0 .5523.44771 1 1 1 .5523 0 1-.4477 1-1s-.4477-1-1-1c-.55229 0-1 .4477-1 1z" fill="#797979" fill-rule="evenodd"/><path d="m10 23-.10173.2284.10161.0452.10162-.0451zm9.0038-10.2053.25.0005zm-.0038-7.7947h-.25v.01132l.001.01127zm-1.1099-1.43971.1295-.21385zm-.8901-.56029.1387-.20801zm-14 0-.13867-.20801zm-.89007.56029-.12962-.21405-.00905.00603zm0 0 .12962.21405.00905-.00604zm14.89187 10.19441-.25-.0005zm-7.0009 7.0473-.10594.2264.10584.0496.1059-.0495zm-7.0009-15.43867-.13183-.21241-.11817.07333v.13908zm.12779-.0793-.12864-.2144-.00319.00198zm.00001-.00001.12862.21438.01442-.00865.01313-.01051zm0 0-.13179-.21244-.01271.00788-.01167.00934zm.9816-.61992-.13867-.20801zm11.7812 0-.1387.20801zm.9816.61993.1318-.21241v-.00003zm.1374.08525.25-.00091-.0005-.13848-.1177-.07302zm-.0006 4.74052-.25-.0004zm-.0031 1.6916.25.0005zm-4.0059-2.8014h-.25v.25h.25zm-6 0v.25h.25v-.25zm4 0v.25h.25v-.25zm-2 0h-.25v.25h.25zm-2 2v-.25h-.25v.25zm0 4h-.25v.25h.25zm6-4h.25v-.25h-.25zm0 4v.25h.25v-.25zm-2.8983 7.7716c-2.98942-1.3317-5.21309-2.6542-6.68561-3.9631-1.4739-1.3102-2.16609-2.5795-2.16609-3.8085h-.5c0 1.4314.80781 2.8256 2.33391 4.1822 1.52748 1.3577 3.80381 2.705 6.81436 4.0462zm8.6483-7.7716c0 1.2323-.6924 2.5032-2.1661 3.8131-1.4724 1.3089-3.696 2.6298-6.68543 3.9584l.20303.457c3.0106-1.3381 5.287-2.6838 6.8146-4.0416 1.5263-1.3567 2.3339-2.7525 2.3339-4.1869zm.0038-2.2058c-.0021 1.0084-.0038 1.824-.0038 2.2058h.5c0-.3811.0017-1.196.0038-2.2048zm-.0028-7.77161c0-.00047.0004.00478.0009.01968.0005.01346.001.0314.0015.05401.001.04513.0019.10627.0027.18234.0016.15201.0028.36115.0037.6159.0018.50937.0022 1.19925.0018 1.97508-.0007 1.55158-.0047 3.4457-.0078 4.9246l.5.001c.0031-1.4787.0071-3.3733.0078-4.92536.0004-.776 0-1.46667-.0018-1.97705-.0017-.49988-.0046-.84681-.0108-.91538zm-.9904-1.24845c.4217.25536.6576.40154.8014.56718.1229.14163.188.31142.188.65868h.5c0-.42033-.0822-.72354-.3104-.98643-.2074-.23889-.5264-.42877-.92-.66713zm-.8993-.56613c.3536.23571.6523.41657.8993.56613l.259-.4277c-.2468-.14941-.5373-.32534-.8809-.55445zm-6.8613-1.95801c2.9419 0 5.3989.98308 6.8613 1.95801l.2774-.41602c-1.5376-1.02507-4.0901-2.04199-7.1387-2.04199zm-6.86133 1.95801c-.00022.00015.00373-.00242.01412-.00863.00953-.00569.02242-.01322.03871-.02253.03255-.01859.07723-.04343.13334-.07366.11216-.06042.26869-.14163.46334-.23644.38938-.18965.92979-.433 1.57131-.67305 1.28622-.4813 2.96406-.9437 4.64051-.9437v-.5c-1.76034 0-3.5016.48367-4.81574.97541-1.31139.49071-2.22103.99864-2.32293 1.06658zm-.89924.56612c.24698-.14956.54569-.33041.89924-.56612l-.27734-.41602c-.34367.22911-.63416.40504-.88089.55445zm.00917-.00583h.00001l-.27735-.41603-.00001.00001zm-.9986 1.2317c0-.34726.06508-.51705.18801-.65868.14378-.16564.37971-.31182.80141-.56718l-.25899-.4277c-.39362.23836-.71266.42824-.92001.66713-.228196.26289-.31042.5661-.31042.98643zm0 10v-10h-.5v10zm16 0c0-.23.0006-.6157.0018-1.2448l-.5-.001c-.0012.6291-.0018 1.0152-.0018 1.2458zm-7.1433 6.0285c2.3962-1.119 4.168-2.2021 5.3451-3.205 1.1646-.9922 1.7982-1.95 1.7982-2.8235h-.5c0 .6407-.4804 1.4699-1.6225 2.4429-1.1296.9625-2.8573 2.0234-5.23236 3.1326zm-7.3567-6.0285c0 .8708.63419 1.8274 1.79892 2.8195 1.17738 1.0029 2.94963 2.0874 5.34604 3.2089l.21194-.4528c-2.37542-1.1117-4.10362-2.1741-5.23376-3.1367-1.14278-.9735-1.62314-1.8013-1.62314-2.4389zm0-9.63667v9.63667h.5v-9.63667zm.24596-.29172-.12779.07931.26366.42483.12779-.0793zm.00321-.00196.25724.42875h.00001zm-.02754.01915-.00001.00001.31235.39043zm.9991-.63271c-.23249.15499-.64963.41381-.97472.61549l.26358.42488c.32165-.19954.74745-.46366.98849-.62435zm6.02927-1.70609c-1.11601 0-2.38575.27026-3.48579.6136-1.09705.3424-2.05512.76691-2.54348 1.09249l.27735.41602c.43087-.28724 1.33714-.69478 2.4151-1.03122 1.07497-.33551 2.29091-.59089 3.33682-.59089zm6.0293 1.70609c-1.5204-1.01355-3.7235-1.70609-6.0293-1.70609v.5c2.2145 0 4.3197.6673 5.7519 1.62211zm.9747.6155c-.3251-.20168-.7422-.46051-.9747-.6155l-.2774.41602c.2411.16069.6669.42482.9885.62436zm.1374.08528-.1374-.08525-.2636.42483.1373.08525zm.1176 4.95333c.0037-2.23223.0027-4.1486.0006-4.74183l-.5.00182c.0021.59184.0031 2.50711-.0006 4.73921zm-.0031 1.6917c.0013-.6319.0023-1.1742.0031-1.6917l-.5-.0008c-.0008.5174-.0018 1.0596-.0031 1.6915zm-.0041 1.9533.0041-1.9533-.5-.001-.0041 1.9533zm-2.0018-2.7552c0-1.24264-1.0074-2.25-2.25-2.25v.5c.9665 0 1.75.7835 1.75 1.75zm0 4v-4h-.5v4zm-2.25 2.25c1.2426 0 2.25-1.0074 2.25-2.25h-.5c0 .9665-.7835 1.75-1.75 1.75zm-6 0h6v-.5h-6zm-2.25-2.25c0 1.2426 1.00736 2.25 2.25 2.25v-.5c-.9665 0-1.75-.7835-1.75-1.75zm0-4v4h.5v-4zm2.25-2.25c-1.24264 0-2.25 1.00736-2.25 2.25h.5c0-.9665.7835-1.75 1.75-1.75zm-.25-1.75v2h.5v-2zm3.25-3.25c-1.79493 0-3.25 1.45507-3.25 3.25h.5c0-1.51878 1.23122-2.75 2.75-2.75zm3.25 3.25c0-1.79493-1.4551-3.25-3.25-3.25v.5c1.5188 0 2.75 1.23122 2.75 2.75zm0 2v-2h-.5v2zm-2 0v-2h-.5v2zm-2.25.25h2v-.5h-2zm-.25-2.25v2h.5v-2zm1.25-1.25c-.69036 0-1.25.55964-1.25 1.25h.5c0-.41421.33579-.75.75-.75zm1.25 1.25c0-.69036-.5596-1.25-1.25-1.25v.5c.4142 0 .75.33579.75.75zm-4.5 4v4h.5v-4zm6.25-.25h-6v.5h6zm.25 4.25v-4h-.5v4zm-6.25.25h6v-.5h-6zm3-1.5c-.41421 0-.75-.3358-.75-.75h-.5c0 .6904.55964 1.25 1.25 1.25zm.75-.75c0 .4142-.3358.75-.75.75v.5c.6904 0 1.25-.5596 1.25-1.25zm-.75-.75c.4142 0 .75.3358.75.75h.5c0-.6904-.5596-1.25-1.25-1.25zm-.75.75c0-.4142.33579-.75.75-.75v-.5c-.69036 0-1.25.5596-1.25 1.25z" fill="#fff"/></svg>