<svg fill="none" height="24" viewBox="0 0 24 24" width="24" xmlns="http://www.w3.org/2000/svg"><path clip-rule="evenodd" d="m2.70713 1.29291-1.41421 1.41421 4.06482 4.06482c-.37866.31381-.7534.65083-1.12401 1.00922-.82922.8019-1.5794 1.65801-2.2398 2.51444-.3985.5169-.68143.9234-.83634 1.1656l-.344602.5388.344602.5388c.15491.2422.43784.6488.83634 1.1656.6604.8565 1.41058 1.7126 2.2398 2.5145 2.43061 2.3505 5.03874 3.7811 7.76627 3.7811 1.7209 0 3.3943-.5695 5.0056-1.5802l4.2873 4.2873 1.4142-1.4142zm12.83757 15.66599-1.5127-1.5127c-.5955.3519-1.2902.5538-2.032.5538-2.20912 0-3.99998-1.7908-3.99998-4 0-.7418.20193-1.4364.55382-2.03195l-1.7741-1.7741c-.38739.31241-.77294.65479-1.15568 1.02491-.7542.72936-1.44165 1.51384-2.04629 2.29804-.13059.1693-.25126.3309-.36158.4831.11032.1522.23099.3138.36158.4831.60464.7842 1.29209 1.5687 2.04629 2.2981 2.09345 2.0244 4.27089 3.2188 6.37594 3.2188 1.1682 0 2.3586-.3678 3.5447-1.0411zm-5.4769-5.4769c-.0442.1652-.0678.3389-.0678.518 0 1.1046.8955 2 2 2 .1792 0 .3528-.0235.5181-.0677zm10.0303 4.409-1.4143-1.4143c.6342-.641 1.2171-1.3174 1.7385-1.9936.1306-.1693.2512-.3309.3616-.4831-.1104-.1522-.231-.3138-.3616-.4831-.6047-.7842-1.2921-1.56868-2.0463-2.29804-2.0935-2.02447-4.2709-3.21885-6.376-3.21885-.5223 0-1.049.07353-1.5779.21502l-1.58193-1.58197c1.03245-.41167 2.08693-.63305 3.15983-.63305 2.7276 0 5.3357 1.43063 7.7663 3.78115.8292.8019 1.5794 1.65801 2.2398 2.51444.3985.5169.6814.9234.8364 1.1656l.3446.5388-.3446.5388c-.155.2422-.4379.6488-.8364 1.1656-.5712.7407-1.2095 1.4812-1.908 2.1866z" fill="#000" fill-rule="evenodd"/></svg>