<svg fill="none" height="24" viewBox="0 0 24 24" width="24" xmlns="http://www.w3.org/2000/svg"><path clip-rule="evenodd" d="m12 23c-6.07513 0-11-4.9249-11-11 0-6.07513 4.92487-11 11-11 6.0751 0 11 4.92487 11 11 0 6.0751-4.9249 11-11 11zm7.3995-5.8754c1.0091-1.4543 1.6005-3.2204 1.6005-5.1246 0-4.97056-4.0294-9-9-9-4.97056 0-9 4.02944-9 9 0 1.9042.59138 3.6703 1.6005 5.1246 1.12545-1.4865 3.7701-2.1246 7.3995-2.1246s6.274.6381 7.3995 2.1246zm-1.4348 1.6152c-.2927-1.0524-2.3953-1.7398-5.9647-1.7398-3.56938 0-5.672.6874-5.96468 1.7398 1.58798 1.4064 3.67662 2.2602 5.96468 2.2602 2.2881 0 4.3767-.8538 5.9647-2.2602zm-5.9647-3.7398c-2.23914 0-4-1.5726-4-5 0-2.24424 1.5791-4 4-4 2.4142 0 4 1.92158 4 4.2 0 3.2796-1.7819 4.8-4 4.8zm-2-5c0 2.2693.8182 3 2 3 1.1777 0 2-.7016 2-2.8 0-1.24958-.7843-2.2-2-2.2-1.2663 0-2 .81582-2 2z" fill="#14213d" fill-rule="evenodd"/></svg>