<svg fill="none" height="24" viewBox="0 0 24 24" width="24" xmlns="http://www.w3.org/2000/svg"><path clip-rule="evenodd" d="m12 4c2.7276 0 5.3357 1.43062 7.7663 3.78115.8292.8019 1.5794 1.65801 2.2398 2.51445.3985.5168.6814.9234.8364 1.1656l.3446.5388-.3446.5388c-.155.2422-.4379.6488-.8364 1.1656-.6604.8564-1.4106 1.7126-2.2398 2.5145-2.4306 2.3505-5.0387 3.7811-7.7663 3.7811-2.72753 0-5.33566-1.4306-7.76627-3.7811-.82922-.8019-1.5794-1.6581-2.2398-2.5145-.3985-.5168-.68143-.9234-.83634-1.1656l-.344602-.5388.344602-.5388c.15491-.2422.43784-.6488.83634-1.1656.6604-.85644 1.41058-1.71255 2.2398-2.51445 2.43061-2.35053 5.03874-3.78115 7.76627-3.78115zm8.4223 7.5169c-.6047-.7842-1.2921-1.5687-2.0463-2.29805-2.0935-2.02447-4.2709-3.21885-6.376-3.21885-2.10505 0-4.28249 1.19438-6.37594 3.21885-.7542.72935-1.44165 1.51385-2.04629 2.29805-.13059.1693-.25126.3309-.36158.4831.11032.1522.23099.3138.36158.4831.60464.7842 1.29209 1.5687 2.04629 2.298 2.09345 2.0245 4.27089 3.2189 6.37594 3.2189 2.1051 0 4.2825-1.1944 6.376-3.2189.7542-.7293 1.4416-1.5138 2.0463-2.298.1306-.1693.2512-.3309.3616-.4831-.1104-.1522-.231-.3138-.3616-.4831zm-12.42228.4831c0 2.2091 1.79086 4 3.99998 4 2.2092 0 4-1.7909 4-4 0-2.20914-1.7908-4-4-4-2.20912 0-3.99998 1.79086-3.99998 4zm5.99998 0c0 1.1046-.8954 2-2 2-1.1045 0-2-.8954-2-2s.8955-2 2-2c1.1046 0 2 .8954 2 2z" fill="#000" fill-rule="evenodd"/></svg>