<svg fill="none" height="24" viewBox="0 0 24 24" width="24" xmlns="http://www.w3.org/2000/svg"><path clip-rule="evenodd" d="m8 9c0-3.86599 3.134-7 7-7s7 3.13401 7 7c0 3.866-3.134 7-7 7h-2v2h-2v2h-2v2h-7v-5.4142l6.14801-6.148c-.09806-.46933-.14801-.95049-.14801-1.4378zm3 7v-2h4c2.7614 0 5-2.2386 5-5 0-2.76142-2.2386-5-5-5s-5 2.23858-5 5c0 .49863.0727.98638.2141 1.4529l.1738.5734-6.3879 6.3879v2.5858h3v-2h2v-2zm2-7c0 1.1046.8954 2 2 2s2-.8954 2-2c0-1.10457-.8954-2-2-2s-2 .89543-2 2z" fill="#14213d" fill-rule="evenodd"/></svg>